<svg width="80" height="100" viewBox="0 0 80 100" fill="none" xmlns="http://www.w3.org/2000/svg">
<g id="noun-wedding-2058901 1">
<path id="Vector" d="M45.9938 7.99534C45.5848 7.82347 45.1172 8.01722 44.9473 8.42503L43.2551 12.4758C43.0848 12.8836 43.2774 13.3524 43.6852 13.5227C43.786 13.5649 43.8903 13.5844 43.993 13.5844C44.3063 13.5844 44.6036 13.4 44.7317 13.093L46.4239 9.04222C46.5942 8.6344 46.4016 8.16565 45.9938 7.99534Z" fill="#E9C0A4"/>
<path id="Vector_2" d="M45.8434 16.0726C45.9809 16.3594 46.2672 16.5265 46.5653 16.5265C46.6813 16.5265 46.7993 16.5015 46.9106 16.4476L50.8692 14.5508C51.2676 14.3601 51.436 13.8828 51.245 13.4836C51.0544 13.0851 50.5747 12.9156 50.1778 13.1086L46.2192 15.0055C45.8208 15.1961 45.6524 15.6734 45.8434 16.0726Z" fill="#E9C0A4"/>
<path id="Vector_3" d="M60.2203 33.6759C59.4734 30.6283 57.2804 23.1642 55.9254 20.3548C55.7613 20.015 55.3816 19.8345 55.0144 19.9251L40.9265 23.3775C40.5593 23.4681 40.3054 23.8017 40.3172 24.1798C40.4133 27.2923 41.9203 34.9275 42.6676 37.9783C45.0859 47.8462 50.339 54.9158 55.0168 54.9158C55.1093 54.9158 55.2008 54.9051 55.2928 54.8995L58.7782 69.1867L53.8929 70.3837C53.4636 70.4892 53.2011 70.922 53.3062 71.3517C53.3957 71.7165 53.7226 71.9611 54.0824 71.9611C54.1457 71.9611 54.2097 71.954 54.2734 71.9384L65.5988 69.1634C66.0281 69.0579 66.2906 68.6251 66.1855 68.1954C66.0801 67.7665 65.6429 67.504 65.2183 67.6087L60.3326 68.8058L56.8482 54.5223C61.1901 52.5841 62.6866 43.7415 60.2203 33.6759ZM54.7504 21.6376C55.2167 22.7221 55.7583 24.2492 56.2937 25.8904C51.7685 27.1452 49.6489 28.8777 47.6027 30.5564C46.3295 31.6014 45.114 32.593 43.3275 33.4845C42.7271 30.4779 42.1118 26.9191 41.9519 24.7736L54.7504 21.6376ZM55.7093 53.2329C51.7933 54.2072 46.534 47.0314 44.2215 37.597C44.0621 36.9466 43.867 36.0797 43.6592 35.0988C45.8208 34.0791 47.2458 32.9187 48.6176 31.7931C50.63 30.142 52.5422 28.5802 56.7799 27.4158C57.5742 29.9652 58.2981 32.5546 58.6664 34.0572C60.9781 43.4915 59.6242 52.2736 55.7093 53.2329Z" fill="#E9C0A4"/>
<path id="Vector_4" d="M55.2508 35.6697C54.8219 35.7752 54.5594 36.2088 54.6645 36.6377C55.8059 41.294 55.6258 45.2002 55.145 46.3744C54.9774 46.783 55.1731 47.2502 55.5821 47.4182C55.6813 47.4588 55.784 47.4776 55.8848 47.4776C56.2001 47.4776 56.4985 47.2901 56.6254 46.9807C57.2993 45.3361 57.3856 41.0182 56.2184 36.2565C56.1129 35.8276 55.6778 35.5643 55.2508 35.6697Z" fill="#E9C0A4"/>
<path id="Vector_5" d="M14.8547 56.0899C14.4274 55.9844 13.9926 56.2477 13.8875 56.6766C13.7825 57.1063 14.045 57.5391 14.4743 57.6446L25.7993 60.4196C25.8629 60.4352 25.927 60.4422 25.9903 60.4422C26.35 60.4422 26.677 60.1977 26.7664 59.8329C26.8715 59.4032 26.609 58.9704 26.1797 58.8649L21.2945 57.6679L24.7797 43.3812C24.8719 43.3868 24.9635 43.3977 25.0563 43.3977C29.7336 43.3977 34.9871 36.3266 37.4051 26.4594C38.1524 23.411 39.659 15.7774 39.7555 12.661C39.7672 12.2829 39.5133 11.9493 39.1461 11.8586L25.0582 8.4063C24.6926 8.31645 24.3118 8.49614 24.1473 8.83598C22.7926 11.6438 20.5996 19.1086 19.8528 22.1571C17.3862 32.2225 18.8825 41.0647 23.2245 43.0034L19.7401 57.287L14.8547 56.0899ZM25.3223 10.1188L38.1211 13.2547C37.9879 15.0403 37.5393 17.8036 37.0469 20.4129C35.3089 19.5233 34.1211 18.5376 32.8754 17.5008C30.8562 15.8205 28.7652 14.0858 24.3023 12.8131C24.6597 11.7823 25.0083 10.849 25.3223 10.1188ZM21.4067 22.5383C21.8512 20.7244 22.8125 17.3302 23.7921 14.3319C27.9768 15.5117 29.8649 17.0768 31.8516 18.7305C33.2026 19.8547 34.6059 21.0138 36.7308 22.0383C36.4077 23.6521 36.0899 25.104 35.8512 26.0782C33.5395 35.5125 28.284 42.6821 24.3637 41.7141C20.4485 40.7547 19.0946 31.9727 21.4067 22.5383Z" fill="#E9C0A4"/>
<path id="Vector_6" d="M24.7856 36.0476C25.1942 35.8804 25.3899 35.4132 25.2223 35.0046C24.6278 33.5538 24.3997 28.7468 25.7993 23.0366C25.9043 22.6069 25.6418 22.1741 25.2125 22.0687C24.7868 21.9632 24.3504 22.2265 24.2454 22.6554C22.8325 28.421 22.9313 33.6343 23.7418 35.6109C23.8688 35.921 24.1672 36.1077 24.4825 36.1077C24.5836 36.1077 24.6864 36.089 24.7856 36.0476Z" fill="#E9C0A4"/>
<path id="Vector_7" d="M38.1059 59.9999C38.2012 59.9999 38.2961 59.9827 38.3867 59.9491C38.6262 59.8592 44.266 57.6999 45.3184 53.46C45.9461 50.9311 44.5398 49.0561 42.8676 48.3194C41.4457 47.692 39.5352 47.7788 38.1059 49.1944C36.6773 47.7795 34.7664 47.692 33.3449 48.3194C31.6723 49.0561 30.2652 50.9311 30.893 53.46C31.9461 57.6999 37.5856 59.8592 37.825 59.9491C37.9156 59.9827 38.0106 59.9999 38.1059 59.9999ZM32.4461 53.0741C32.0148 51.3374 33.0082 50.2155 33.9898 49.7834C34.3164 49.6397 34.702 49.5483 35.1078 49.5483C35.9039 49.5483 36.7785 49.8999 37.4395 50.8952C37.5879 51.1178 37.8379 51.2522 38.1059 51.2522C38.3738 51.2522 38.6238 51.1178 38.7723 50.8952C39.7707 49.392 41.2555 49.3584 42.2223 49.7834C43.2039 50.2155 44.1969 51.3374 43.7652 53.0741C43.0336 56.0241 39.184 57.8702 38.1051 58.335C37.0258 57.8717 33.1809 56.0334 32.4461 53.0741Z" fill="#E9C0A4"/>
<path id="Vector_8" d="M71.8387 15.1258C72.5223 12.3406 70.9172 10.2367 69.1364 9.46014C67.5762 8.78045 65.4758 8.8992 63.9231 10.5C62.3707 8.8992 60.27 8.77967 58.7098 9.46014C56.929 10.2367 55.3235 12.3406 56.0075 15.1258C57.1629 19.8328 63.3754 22.2375 63.6395 22.3375C63.7309 22.3726 63.827 22.3898 63.9231 22.3898C64.0192 22.3898 64.1153 22.3726 64.2067 22.3383C64.4707 22.2375 70.684 19.8328 71.8387 15.1258ZM63.9231 20.7242C62.7602 20.2203 58.3911 18.125 57.5614 14.7445C57.0957 12.8484 58.1239 11.4609 59.3489 10.9273C59.7137 10.768 60.143 10.668 60.5954 10.668C61.5024 10.668 62.5016 11.0719 63.2543 12.218C63.4024 12.443 63.6536 12.5789 63.9231 12.5789C64.1926 12.5789 64.4438 12.443 64.5918 12.218C65.72 10.5 67.4016 10.4484 68.4969 10.9273C69.7223 11.4609 70.75 12.8484 70.2848 14.7445C69.4555 18.125 65.086 20.2203 63.9231 20.7242Z" fill="#E9C0A4"/>
<path id="Vector_9" d="M13.4914 19.36C13.5847 19.3967 13.6832 19.4146 13.782 19.4146C13.8805 19.4146 13.9793 19.3967 14.0726 19.36C14.2582 19.2873 18.6285 17.5475 19.4476 14.1139C19.8832 12.2889 19.0387 10.5264 17.3941 9.82949C16.3156 9.37167 14.8867 9.44277 13.782 10.4607C12.6789 9.44277 11.2504 9.37089 10.1703 9.8287C8.52576 10.5264 7.68123 12.2881 8.11639 14.1139C8.93631 17.5475 13.3058 19.2873 13.4914 19.36ZM10.7949 11.3021C11.0094 11.2115 11.2519 11.156 11.5047 11.156C12.0523 11.156 12.6484 11.4154 13.1078 12.135C13.2547 12.3654 13.509 12.5045 13.782 12.5045C14.0551 12.5045 14.3094 12.3654 14.4562 12.135C15.1285 11.0826 16.0926 11.0162 16.7695 11.3021C17.5398 11.6287 18.1855 12.51 17.8914 13.742C17.3707 15.9248 14.6797 17.3287 13.782 17.742C12.8844 17.3287 10.1937 15.9248 9.67264 13.742C9.37889 12.51 10.0246 11.6287 10.7949 11.3021Z" fill="#E9C0A4"/>
<path id="Vector_10" d="M37.2106 66.4406C37.6462 64.6156 36.8016 62.8539 35.1575 62.1562C34.0774 61.6976 32.6481 61.7703 31.545 62.7875C30.4415 61.7703 29.0141 61.6976 27.9329 62.1562C26.2887 62.8539 25.4442 64.6156 25.8797 66.4406C26.6993 69.875 31.0688 71.6148 31.2544 71.6875C31.3477 71.7242 31.4465 71.7422 31.545 71.7422C31.6434 71.7422 31.7422 71.7242 31.8356 71.6875C32.0212 71.6148 36.3915 69.875 37.2106 66.4406ZM31.5403 70.0719C30.334 69.5289 27.9133 68.0695 27.436 66.0687C27.1422 64.8375 27.7876 63.9562 28.5579 63.6297C28.7723 63.5383 29.0149 63.4828 29.268 63.4828C29.8157 63.4828 30.4114 63.7422 30.8708 64.4617C31.0176 64.6922 31.2719 64.8312 31.545 64.8312C31.818 64.8312 32.0723 64.6922 32.2192 64.4617C32.8907 63.4101 33.8559 63.3398 34.5325 63.6297C35.3028 63.9562 35.9481 64.8375 35.6544 66.0687C35.1329 68.2562 32.4333 69.6617 31.5403 70.0719Z" fill="#E9C0A4"/>
</g>
</svg>
