<svg width="80" height="100" viewBox="0 0 80 100" fill="none" xmlns="http://www.w3.org/2000/svg">
<g id="noun-dj-1254781 1">
<path id="Vector" d="M72.1561 16.9942L69.4441 13.9014L70.4537 9.91421C70.5289 9.61901 70.4289 9.30701 70.1977 9.10941C69.9657 8.91181 69.6425 8.86381 69.3625 8.98301L65.5825 10.607L62.1025 8.41421C61.8449 8.25181 61.5185 8.25101 61.2577 8.40941C60.9985 8.56861 60.8513 8.86141 60.8793 9.16461L61.2553 13.2606L58.0937 15.8934C57.8601 16.0886 57.7569 16.399 57.8281 16.695C57.8993 16.991 58.1321 17.2206 58.4289 17.2878L62.4409 18.1958L63.9673 22.015C64.0809 22.2982 64.3441 22.4918 64.6481 22.5158C64.6689 22.5174 64.6897 22.5182 64.7105 22.5182C64.9913 22.5182 65.2529 22.371 65.3977 22.127L67.5009 18.5918L71.6057 18.3206C71.9097 18.3006 72.1753 18.1094 72.2921 17.8278C72.4089 17.5462 72.3569 17.223 72.1561 16.9942ZM66.9777 17.0222C66.7145 17.0398 66.4777 17.1854 66.3433 17.4118L64.8537 19.915L63.7721 17.2102C63.6745 16.9654 63.4625 16.7846 63.2057 16.727L60.3641 16.0838L62.6033 14.2198C62.8057 14.051 62.9121 13.7942 62.8873 13.5318L62.6209 10.631L65.0857 12.1838C65.3081 12.3238 65.5865 12.3454 65.8281 12.2422L68.5049 11.0918L67.7897 13.9158C67.7249 14.171 67.7897 14.4422 67.9633 14.6398L69.8841 16.8302L66.9777 17.0222Z" fill="#E9C0A4"/>
<path id="Vector_2" d="M8.46161 62.0911C8.42001 62.3927 8.55361 62.6911 8.80641 62.8623L12.2144 65.1655L12.2488 69.2791C12.2512 69.5839 12.4264 69.8607 12.7008 69.9927C12.8112 70.0463 12.9304 70.0727 13.0488 70.0727C13.224 70.0727 13.3976 70.0151 13.5408 69.9039L16.7848 67.3743L20.708 68.6127C20.9976 68.7055 21.3152 68.6239 21.5264 68.4031C21.7368 68.1831 21.8048 67.8631 21.7008 67.5767L20.2976 63.7103L22.6872 60.3623C22.864 60.1143 22.8848 59.7879 22.7408 59.5191C22.5968 59.2503 22.3272 59.0871 22.008 59.0975L17.8968 59.2375L15.4512 55.9295C15.2696 55.6847 14.9672 55.5655 14.6664 55.6175C14.3664 55.6719 14.1232 55.8911 14.0392 56.1839L12.9016 60.1367L9.00081 61.4407C8.71121 61.5375 8.50241 61.7895 8.46161 62.0911ZM13.808 61.5207C14.0576 61.4375 14.2504 61.2367 14.3232 60.9831L15.1288 58.1831L16.8608 60.5255C17.0176 60.7375 17.256 60.8559 17.5312 60.8495L20.4424 60.7503L18.7504 63.1215C18.5976 63.3359 18.56 63.6119 18.6496 63.8591L19.644 66.5975L16.8656 65.7207C16.616 65.6415 16.3408 65.6911 16.1328 65.8527L13.8352 67.6439L13.8104 64.7311C13.808 64.4679 13.6768 64.2223 13.4584 64.0751L11.0448 62.4439L13.808 61.5207Z" fill="#E9C0A4"/>
<path id="Vector_3" d="M24.1184 67.6074C24.1184 69.7826 25.888 71.5522 28.0632 71.5522C30.2384 71.5522 32.008 69.7826 32.008 67.6074C32.008 65.4322 30.2384 63.6626 28.0632 63.6626C25.888 63.6626 24.1184 65.4322 24.1184 67.6074ZM30.408 67.6074C30.408 68.9002 29.356 69.9522 28.0632 69.9522C26.7704 69.9522 25.7184 68.9002 25.7184 67.6074C25.7184 66.3146 26.7696 65.2626 28.0632 65.2626C29.3568 65.2626 30.408 66.3146 30.408 67.6074Z" fill="#E9C0A4"/>
<path id="Vector_4" d="M67.8159 60.3496C69.9911 60.3496 71.7607 58.58 71.7607 56.4048C71.7607 54.2296 69.9911 52.46 67.8159 52.46C65.6407 52.46 63.8711 54.2296 63.8711 56.4048C63.8711 58.58 65.6407 60.3496 67.8159 60.3496ZM67.8159 54.06C69.1087 54.06 70.1607 55.1112 70.1607 56.4048C70.1607 57.6984 69.1095 58.7496 67.8159 58.7496C66.5223 58.7496 65.4711 57.6976 65.4711 56.4048C65.4711 55.112 66.5231 54.06 67.8159 54.06Z" fill="#E9C0A4"/>
<path id="Vector_5" d="M56.1855 65.5503C56.1855 68.2463 58.3791 70.4398 61.0751 70.4398C63.7711 70.4398 65.9647 68.2463 65.9647 65.5503C65.9647 62.8543 63.7711 60.6606 61.0751 60.6606C58.3791 60.6606 56.1855 62.8543 56.1855 65.5503ZM64.3655 65.5503C64.3655 67.3647 62.8895 68.8399 61.0759 68.8399C59.2623 68.8399 57.7863 67.3639 57.7863 65.5503C57.7863 63.7367 59.2623 62.2606 61.0759 62.2606C62.8895 62.2606 64.3655 63.7359 64.3655 65.5503Z" fill="#E9C0A4"/>
<path id="Vector_6" d="M16.9809 13.3042C14.2849 13.3042 12.0913 15.4978 12.0913 18.1938C12.0913 20.8898 14.2849 23.0834 16.9809 23.0834C19.6769 23.0834 21.8705 20.8898 21.8705 18.1938C21.8705 15.4978 19.6769 13.3042 16.9809 13.3042ZM16.9809 21.4834C15.1665 21.4834 13.6913 20.0074 13.6913 18.1938C13.6913 16.3794 15.1673 14.9042 16.9809 14.9042C18.7945 14.9042 20.2705 16.3802 20.2705 18.1938C20.2697 20.0082 18.7945 21.4834 16.9809 21.4834Z" fill="#E9C0A4"/>
<path id="Vector_7" d="M40.1537 16.5386C27.1681 16.5386 16.6033 27.1034 16.6033 40.089C16.6033 53.0746 27.1681 63.6386 40.1537 63.6386C53.1385 63.6386 63.7033 53.0738 63.7033 40.0882C63.7033 27.1026 53.1385 16.5386 40.1537 16.5386ZM40.1537 62.0386C28.0505 62.0386 18.2033 52.1914 18.2033 40.0882C18.2033 27.985 28.0505 18.1378 40.1537 18.1378C52.2569 18.1378 62.1033 27.985 62.1033 40.0882C62.1033 52.1914 52.2569 62.0386 40.1537 62.0386Z" fill="#E9C0A4"/>
<path id="Vector_8" d="M39.9975 57.6598C39.5559 57.6598 39.1975 58.0182 39.1975 58.4598C39.1975 58.9014 39.5559 59.2598 39.9975 59.2598C50.5687 59.2598 59.1687 50.6598 59.1687 40.0886C59.1687 39.647 58.8103 39.2886 58.3687 39.2886C57.9271 39.2886 57.5687 39.647 57.5687 40.0886C57.5687 49.7774 49.6863 57.6598 39.9975 57.6598Z" fill="#E9C0A4"/>
<path id="Vector_9" d="M40.7977 21.717C40.7977 21.2754 40.4393 20.917 39.9977 20.917C29.4265 20.917 20.8257 29.517 20.8257 40.089C20.8257 40.5306 21.1841 40.889 21.6257 40.889C22.0673 40.889 22.4257 40.5306 22.4257 40.089C22.4257 30.4002 30.3089 22.517 39.9977 22.517C40.4393 22.517 40.7977 22.1586 40.7977 21.717Z" fill="#E9C0A4"/>
<path id="Vector_10" d="M39.4072 54.5078C39.4072 54.9494 39.7656 55.3078 40.2072 55.3078C48.5992 55.3078 55.4264 48.4806 55.4264 40.0886C55.4264 39.647 55.068 39.2886 54.6264 39.2886C54.1848 39.2886 53.8264 39.647 53.8264 40.0886C53.8264 47.5982 47.7168 53.7078 40.2072 53.7078C39.7656 53.7078 39.4072 54.0662 39.4072 54.5078Z" fill="#E9C0A4"/>
<path id="Vector_11" d="M47.3472 40.0886C47.3472 36.1222 44.12 32.895 40.1536 32.895C36.1872 32.895 32.9592 36.1222 32.9592 40.0886C32.9592 44.055 36.1864 47.2822 40.1536 47.2822C44.1208 47.2822 47.3472 44.055 47.3472 40.0886ZM34.5592 40.0886C34.5592 37.0046 37.0688 34.495 40.1536 34.495C43.2376 34.495 45.7472 37.0046 45.7472 40.0886C45.7472 43.1726 43.2376 45.6822 40.1536 45.6822C37.0688 45.6822 34.5592 43.1726 34.5592 40.0886Z" fill="#E9C0A4"/>
<path id="Vector_12" d="M44.1504 40.0886C44.1504 37.8846 42.3576 36.0918 40.1536 36.0918C37.9496 36.0918 36.156 37.8846 36.156 40.0886C36.156 42.2926 37.9488 44.0854 40.1536 44.0854C42.3576 44.0854 44.1504 42.2926 44.1504 40.0886ZM37.756 40.0886C37.756 38.767 38.8312 37.6918 40.1536 37.6918C41.4752 37.6918 42.5504 38.767 42.5504 40.0886C42.5504 41.4102 41.4752 42.4854 40.1536 42.4854C38.832 42.4854 37.756 41.4102 37.756 40.0886Z" fill="#E9C0A4"/>
</g>
</svg>
