<svg width="80" height="101" viewBox="0 0 80 101" fill="none" xmlns="http://www.w3.org/2000/svg">
<g id="noun-dj-party-940705 1">
<g id="Group">
<path id="Vector" d="M32.9729 19.9241C32.9729 23.8381 36.1257 27.0216 40.0001 27.0216C43.8753 27.0216 47.0273 23.8373 47.0273 19.9241C47.0273 16.0102 43.8745 12.8267 40.0001 12.8267C36.1249 12.8259 32.9729 16.0102 32.9729 19.9241ZM45.1529 19.9241C45.1529 22.7982 42.8457 25.1285 40.0001 25.1285C37.1545 25.1285 34.8481 22.7982 34.8481 19.9241C34.8481 17.0501 37.1553 14.7198 40.0001 14.7198C42.8457 14.7198 45.1529 17.0501 45.1529 19.9241Z" fill="#E9C0A4"/>
<path id="Vector_2" d="M47.9072 45.3376H49.0328C49.24 45.3376 49.4072 45.1679 49.4072 44.9594V37.6098C49.8904 37.4515 50.348 37.2204 50.7664 36.919L58.652 31.2404C59.9056 30.3378 60.6808 28.9246 60.7776 27.3644C60.8744 25.809 60.2752 24.3061 59.1328 23.2412C57.7688 21.9702 55.7616 21.5476 53.8424 22.2578C53.4112 22.417 53.0088 22.6497 52.6352 22.9188L44.844 28.5295C44.6488 28.6701 44.4648 28.8253 44.292 28.9933C43.4936 28.7105 42.6528 28.5643 41.8 28.5643H38.1992C37.3464 28.5643 36.5056 28.7105 35.7072 28.9933C35.5344 28.8253 35.3496 28.6693 35.1552 28.5295L27.3648 22.9196C26.9912 22.6505 26.5888 22.4178 26.1576 22.2578C24.2384 21.5476 22.2312 21.9702 20.8672 23.2412C19.7248 24.3061 19.1248 25.8082 19.2216 27.3644C19.3192 28.9246 20.0936 30.337 21.3472 31.2404L29.2328 36.919C29.6512 37.2204 30.1088 37.4523 30.592 37.6098V44.9594C30.592 45.1687 30.76 45.3376 30.9664 45.3376H32.092C32.2992 45.3376 32.4664 45.1679 32.4664 44.9594V36.2484C32.4664 36.1482 32.476 36.0504 32.4816 35.951C32.3784 35.9607 32.2744 35.9656 32.1704 35.9656C31.528 35.9656 30.8808 35.7805 30.3208 35.3773L22.4352 29.6987C20.8088 28.5271 20.584 26.0821 22.1376 24.6342C22.7328 24.0791 23.4976 23.8092 24.272 23.8092C24.9688 23.8092 25.6728 24.0282 26.2664 24.4556L34.0656 30.072C34.5432 30.4162 34.8872 30.8752 35.1136 31.381C36.0064 30.8008 37.064 30.459 38.1984 30.459H41.7992C42.9336 30.459 43.9912 30.8008 44.884 31.381C45.1104 30.8752 45.4544 30.4162 45.932 30.072L53.7312 24.4556C54.3248 24.0282 55.0288 23.8092 55.7256 23.8092C56.4992 23.8092 57.2648 24.0791 57.86 24.6342C59.4136 26.0821 59.1888 28.5271 57.5624 29.6987L49.6768 35.3773C49.1168 35.7805 48.4696 35.9656 47.8272 35.9656C47.7232 35.9656 47.6192 35.9607 47.516 35.951C47.5208 36.0504 47.5312 36.1482 47.5312 36.2484V44.9594C47.5328 45.1679 47.7008 45.3376 47.9072 45.3376Z" fill="#E9C0A4"/>
<path id="Vector_3" d="M4.9376 76.7565H28.7024H75.0632C75.5808 76.7565 76.0008 76.3323 76.0008 75.8095V49.0534C76.0008 48.5306 75.5808 48.1064 75.0632 48.1064H60.0968H28.7024H25.6312H4.9376C4.42 48.1064 4 48.5306 4 49.0534V75.8103C4 76.3331 4.42 76.7565 4.9376 76.7565ZM52.2352 50.0004H74.1248V74.8634H52.2352V50.0004ZM29.6392 50.0004H50.36V74.8634H29.6392V50.0004ZM5.8752 50.0004H27.7648V74.8634H5.8752V50.0004Z" fill="#E9C0A4"/>
<path id="Vector_4" d="M16.7375 51.8442C10.9575 51.8442 6.25513 56.5937 6.25513 62.4315C6.25513 68.2693 10.9575 73.0187 16.7375 73.0187C22.5175 73.0187 27.2199 68.2693 27.2199 62.4315C27.2199 56.5937 22.5167 51.8442 16.7375 51.8442ZM16.7375 71.1247C11.9911 71.1247 8.13033 67.2245 8.13033 62.4315C8.13033 57.6384 11.9911 53.7382 16.7375 53.7382C21.4839 53.7382 25.3447 57.6384 25.3447 62.4315C25.3447 67.2245 21.4831 71.1247 16.7375 71.1247Z" fill="#E9C0A4"/>
<path id="Vector_5" d="M16.7376 58.187C14.42 58.187 12.5352 60.0907 12.5352 62.4314C12.5352 64.7722 14.42 66.6759 16.7376 66.6759C19.0552 66.6759 20.94 64.7722 20.94 62.4314C20.94 60.0907 19.0544 58.187 16.7376 58.187ZM16.7376 64.7827C15.4544 64.7827 14.4096 63.7283 14.4096 62.4322C14.4096 61.1362 15.4536 60.081 16.7376 60.081C18.0208 60.081 19.0648 61.1354 19.0648 62.4322C19.0648 63.7291 18.0208 64.7827 16.7376 64.7827Z" fill="#E9C0A4"/>
<path id="Vector_6" d="M63.2632 51.8442C57.4832 51.8442 52.7808 56.5937 52.7808 62.4315C52.7808 68.2693 57.4832 73.0187 63.2632 73.0187C69.0432 73.0187 73.7456 68.2693 73.7456 62.4315C73.7456 56.5937 69.0432 51.8442 63.2632 51.8442ZM63.2632 71.1247C58.5168 71.1247 54.656 67.2245 54.656 62.4315C54.656 57.6384 58.5176 53.7382 63.2632 53.7382C68.0088 53.7382 71.8704 57.6384 71.8704 62.4315C71.8704 67.2245 68.0096 71.1247 63.2632 71.1247Z" fill="#E9C0A4"/>
<path id="Vector_7" d="M63.2632 58.187C60.9456 58.187 59.0608 60.0907 59.0608 62.4314C59.0608 64.7722 60.9456 66.6759 63.2632 66.6759C65.5808 66.6759 67.4656 64.7722 67.4656 62.4314C67.4656 60.0907 65.5808 58.187 63.2632 58.187ZM63.2632 64.7827C61.98 64.7827 60.936 63.7283 60.936 62.4322C60.936 61.1362 61.98 60.081 63.2632 60.081C64.5464 60.081 65.5912 61.1354 65.5912 62.4322C65.5912 63.7291 64.5464 64.7827 63.2632 64.7827Z" fill="#E9C0A4"/>
<path id="Vector_8" d="M33.4264 54.2949C32.9088 54.2949 32.4888 54.7191 32.4888 55.2419V69.8974C32.4888 70.4202 32.9088 70.8444 33.4264 70.8444C33.944 70.8444 34.364 70.4202 34.364 69.8974V55.2419C34.364 54.7191 33.944 54.2949 33.4264 54.2949Z" fill="#E9C0A4"/>
<path id="Vector_9" d="M40.0001 54.2949C39.4825 54.2949 39.0625 54.7191 39.0625 55.2419V66.6266V69.8974C39.0625 70.4202 39.4825 70.8444 40.0001 70.8444C40.5177 70.8444 40.9377 70.4202 40.9377 69.8974V66.6266V55.2419C40.9377 54.7191 40.5177 54.2949 40.0001 54.2949Z" fill="#E9C0A4"/>
<path id="Vector_10" d="M46.5736 54.2949C46.056 54.2949 45.636 54.7191 45.636 55.2419V69.8974C45.636 70.4202 46.056 70.8444 46.5736 70.8444C47.0912 70.8444 47.5112 70.4202 47.5112 69.8974V55.2419C47.5112 54.7191 47.092 54.2949 46.5736 54.2949Z" fill="#E9C0A4"/>
<path id="Vector_11" d="M52.1335 8.42322C51.6119 8.44423 51.2055 8.88863 51.2271 9.41544C51.2479 9.92933 51.6663 10.3317 52.1711 10.3317C52.1839 10.3317 52.1967 10.3317 52.2095 10.3309C53.9263 10.2614 55.2671 8.7949 55.1983 7.06335C55.1287 5.32939 53.6799 3.97356 51.9591 4.04467C51.1279 4.0786 50.3591 4.43735 49.7959 5.05467C49.2327 5.67198 48.9407 6.47513 48.9743 7.31626C48.9951 7.84307 49.4303 8.24869 49.9567 8.23172C50.4783 8.21071 50.8839 7.76631 50.8631 7.2395C50.8495 6.90822 50.9647 6.59148 51.1855 6.34908C51.4063 6.10668 51.7079 5.96609 52.0343 5.95316C52.7159 5.92811 53.2815 6.45816 53.3079 7.14011C53.3207 7.46897 53.2063 7.78409 52.9847 8.02649C52.7631 8.2697 52.4607 8.41029 52.1335 8.42322Z" fill="#E9C0A4"/>
<path id="Vector_12" d="M13.5409 40.538C13.8665 40.5251 14.1785 40.6406 14.4177 40.8644C14.6577 41.0891 14.7977 41.3945 14.8105 41.725C14.8313 42.2518 15.2713 42.6622 15.7929 42.6404C16.3017 42.6194 16.7001 42.1968 16.7001 41.687C16.7001 41.6741 16.7001 41.6611 16.6993 41.6482C16.6305 39.9142 15.1785 38.56 13.4641 38.6295C11.7473 38.6998 10.4049 40.1631 10.4761 41.9011C10.5097 42.7406 10.8649 43.5171 11.4761 44.0859C12.0873 44.6548 12.8825 44.9497 13.7153 44.9158C14.2369 44.8947 14.6385 44.4552 14.6217 43.9235C14.6009 43.3967 14.1609 42.9871 13.6393 43.0081C13.3113 43.0218 12.9977 42.9055 12.7577 42.6824C12.5177 42.4594 12.3785 42.1548 12.3657 41.8252C12.3417 41.1367 12.8657 40.5655 13.5409 40.538Z" fill="#E9C0A4"/>
<path id="Vector_13" d="M68.1543 12.9801C68.6767 12.9801 69.0999 12.5527 69.0999 12.025V10.2798C69.0999 9.75214 68.6767 9.32471 68.1543 9.32471C67.6319 9.32471 67.2087 9.75214 67.2087 10.2798V12.025C67.2087 12.5527 67.6319 12.9801 68.1543 12.9801Z" fill="#E9C0A4"/>
<path id="Vector_14" d="M69.0999 17.4873V15.7412C69.0999 15.2136 68.6767 14.7861 68.1543 14.7861C67.6319 14.7861 67.2087 15.2136 67.2087 15.7412V17.4873C67.2087 18.0149 67.6319 18.4423 68.1543 18.4423C68.6767 18.4423 69.0999 18.0141 69.0999 17.4873Z" fill="#E9C0A4"/>
<path id="Vector_15" d="M69.9937 14.8388H71.7217C72.2441 14.8388 72.6673 14.4114 72.6673 13.8838C72.6673 13.3561 72.2441 12.9287 71.7217 12.9287H69.9937C69.4713 12.9287 69.0481 13.3561 69.0481 13.8838C69.0489 14.4114 69.4721 14.8388 69.9937 14.8388Z" fill="#E9C0A4"/>
<path id="Vector_16" d="M66.3152 14.8388C66.8376 14.8388 67.2608 14.4114 67.2608 13.8838C67.2608 13.3561 66.8376 12.9287 66.3152 12.9287H64.5872C64.0648 12.9287 63.6416 13.3561 63.6416 13.8838C63.6416 14.4114 64.0648 14.8388 64.5872 14.8388H66.3152Z" fill="#E9C0A4"/>
<path id="Vector_17" d="M63.2168 39.8859C63.7392 39.8859 64.1624 39.4584 64.1624 38.9308V37.1855C64.1624 36.6579 63.7392 36.2305 63.2168 36.2305C62.6944 36.2305 62.2712 36.6579 62.2712 37.1855V38.9308C62.2712 39.4584 62.6944 39.8859 63.2168 39.8859Z" fill="#E9C0A4"/>
<path id="Vector_18" d="M63.2168 45.3471C63.7392 45.3471 64.1624 44.9197 64.1624 44.3921V42.646C64.1624 42.1183 63.7392 41.6909 63.2168 41.6909C62.6944 41.6909 62.2712 42.1183 62.2712 42.646V44.3921C62.2712 44.9197 62.6944 45.3471 63.2168 45.3471Z" fill="#E9C0A4"/>
<path id="Vector_19" d="M65.0567 41.7441H66.7847C67.3071 41.7441 67.7303 41.3167 67.7303 40.789C67.7303 40.2614 67.3071 39.834 66.7847 39.834H65.0567C64.5343 39.834 64.1111 40.2614 64.1111 40.789C64.1111 41.3167 64.5343 41.7441 65.0567 41.7441Z" fill="#E9C0A4"/>
<path id="Vector_20" d="M59.6497 41.7441H61.3777C61.9001 41.7441 62.3233 41.3167 62.3233 40.789C62.3233 40.2614 61.9001 39.834 61.3777 39.834H59.6497C59.1273 39.834 58.7041 40.2614 58.7041 40.789C58.7041 41.3167 59.1273 41.7441 59.6497 41.7441Z" fill="#E9C0A4"/>
<path id="Vector_21" d="M13.2376 9.54539C13.2376 9.01776 12.8144 8.59033 12.292 8.59033C11.7696 8.59033 11.3464 9.01776 11.3464 9.54539V11.2907C11.3464 11.8183 11.7696 12.2457 12.292 12.2457C12.8144 12.2457 13.2376 11.8183 13.2376 11.2907V9.54539Z" fill="#E9C0A4"/>
<path id="Vector_22" d="M11.3464 15.0068V16.7529C11.3464 17.2805 11.7696 17.708 12.292 17.708C12.8144 17.708 13.2376 17.2805 13.2376 16.7529V15.0068C13.2376 14.4792 12.8144 14.0518 12.292 14.0518C11.7696 14.0518 11.3464 14.4792 11.3464 15.0068Z" fill="#E9C0A4"/>
<path id="Vector_23" d="M15.8599 12.1943H14.1319C13.6095 12.1943 13.1863 12.6218 13.1863 13.1494C13.1863 13.677 13.6095 14.1044 14.1319 14.1044H15.8599C16.3823 14.1044 16.8055 13.677 16.8055 13.1494C16.8055 12.6218 16.3823 12.1943 15.8599 12.1943Z" fill="#E9C0A4"/>
<path id="Vector_24" d="M10.4529 12.1943H8.7249C8.2025 12.1943 7.7793 12.6218 7.7793 13.1494C7.7793 13.677 8.2025 14.1044 8.7249 14.1044H10.4529C10.9753 14.1044 11.3985 13.677 11.3985 13.1494C11.3985 12.6218 10.9753 12.1943 10.4529 12.1943Z" fill="#E9C0A4"/>
</g>
</g>
</svg>
